# xmcd CD database file
#
# Track frame offsets:
#	150
#	17056
#	37984
#	61449
#	79399
#	99041
#	116831
#	137247
#	155120
#	176216
#	205638
#	222751
#	245775
#
# Disc length: 3490 seconds
#
# Revision: 0
# Processed by: cddbd v1.5.2PL0 Copyright (c) Steve Scherf et al.
# Submitted via: CDex 1.51
#
DISCID=b90da00d
DTITLE=malo - This Moment (malo 5th)
DYEAR=2009
DGENRE=Jazz
TTITLE0=Devil may care
TTITLE1=Blues in the night
TTITLE2=Wayfaring stranger
TTITLE3=Charade
TTITLE4=황성옛터
TTITLE5=Danny boy
TTITLE6=Samba for Carmen
TTITLE7=Sunny
TTITLE8=That's what friends are for
TTITLE9=비야 비야
TTITLE10=Up jumped spring
TTITLE11=Wrong goodbye
TTITLE12=Wonderful world - 투사부일체OST
EXTD=YEAR: 2009
EXTT0=
EXTT1=
EXTT2=
EXTT3=
EXTT4=
EXTT5=
EXTT6=
EXTT7=
EXTT8=
EXTT9=
EXTT10=
EXTT11=
EXTT12=
PLAYORDER=
